<?xml version="1.0" encoding="UTF-8" standalone="no"?>
<svg
   xmlns:dc="http://purl.org/dc/elements/1.1/"
   xmlns:cc="http://creativecommons.org/ns#"
   xmlns:rdf="http://www.w3.org/1999/02/22-rdf-syntax-ns#"
   xmlns:svg="http://www.w3.org/2000/svg"
   xmlns="http://www.w3.org/2000/svg"
   xmlns:sodipodi="http://sodipodi.sourceforge.net/DTD/sodipodi-0.dtd"
   xmlns:inkscape="http://www.inkscape.org/namespaces/inkscape"
   inkscape:version="1.0 (4035a4f, 2020-05-01)"
   sodipodi:docname="rails_icon.svg"
   xml:space="preserve"
   viewBox="0 0 512 512"
   version="1.1"
   id="Layer_1"
   enable-background="new 0 0 512 512"><metadata
     id="metadata74"><rdf:RDF><cc:Work
         rdf:about=""><dc:format>image/svg+xml</dc:format><dc:type
           rdf:resource="http://purl.org/dc/dcmitype/StillImage" /></cc:Work></rdf:RDF></metadata><defs
     id="defs72" /><sodipodi:namedview
     inkscape:current-layer="Layer_1"
     inkscape:window-maximized="0"
     inkscape:window-y="0"
     inkscape:window-x="1440"
     inkscape:cy="194.5907"
     inkscape:cx="242.18291"
     inkscape:zoom="1.3027344"
     showgrid="false"
     id="namedview70"
     inkscape:window-height="1080"
     inkscape:window-width="1920"
     inkscape:pageshadow="2"
     inkscape:pageopacity="0"
     guidetolerance="10"
     gridtolerance="10"
     objecttolerance="10"
     borderopacity="1"
     bordercolor="#666666"
     pagecolor="#ffffff" /><circle
     style="fill:#ff385c;fill-opacity:1;"
     r="256"
     id="ellipse"
     fill="#CC0000"
     cy="256"
     cx="256" /><g
     transform="translate(-273.27313,-435.95455)"
     id="logo"><path
       id="path3966"
       fill="#FFFFFF"
       d="M403.9,839h156.2c0,0-34.6-78.7-25.8-150.9s65.8-105.1,98.1-108.6s49.9,16.4,49.9,16.4   l7-10.6c0,0-46.4-47-105.1-41.7c-58.7,5.3-99.2,44-124.5,91c-25.2,47-39.9,79.9-49.9,129.2C399.8,813.2,403.9,839,403.9,839z" /><path
       id="path3968"
       fill="#FFFFFF"
       d="M372.8,760.3l30.5,2.3l-5.3,30.5l-28.8-3.5L372.8,760.3z" /><path
       id="path3970"
       fill="#FFFFFF"
       d="M420.9,695.7l8.2-22.9l-27-10.6l-8.8,24.7L420.9,695.7z" /><path
       id="path3972"
       fill="#FFFFFF"
       d="M459.1,617.1l15.9-18.8l-20.5-13.5L438,603L459.1,617.1z" /><path
       id="path3974"
       fill="#FFFFFF"
       d="M500.8,544.3l14.1,17l19.4-11.2l-14.1-15.9L500.8,544.3z" /><path
       id="path3976"
       fill="#FFFFFF"
       d="M569.5,524.9l3.5,17l24.1-0.6l-2.4-15.3L569.5,524.9z" /><path
       id="path3978"
       fill="#FFFFFF"
       d="M651.1,543.1l-0.6,10.6l16.4,8.8l3.5-5.3L651.1,543.1z" /><path
       id="path3980"
       fill="#FFFFFF"
       d="M647.6,588.3v8.8l15.9,1.8v-7L647.6,588.3z" /><path
       id="path3982"
       fill="#FFFFFF"
       d="M597.1,595.9l7.6,14.1l11.2-8.8l-2.3-9.4L597.1,595.9z" /><path
       id="path3984"
       fill="#FFFFFF"
       d="M573,614.1l11.7,17.6l-7,12.3l-17-18.8L573,614.1z" /><path
       id="path3986"
       fill="#FFFFFF"
       d="M549.5,662.9l-7.6,15.3l20,17l4.7-19.4L549.5,662.9z" /><path
       id="path3988"
       fill="#FFFFFF"
       d="M541.3,716.3l-1.2,20.5l24.7,10.6l-1.2-19.4L541.3,716.3z" /><path
       id="path3990"
       fill="#FFFFFF"
       d="M548.4,789.1l5.9,21.1l31.1,1.8l-11.2-22.9L548.4,789.1L548.4,789.1z" /></g></svg>
