<?xml version="1.0" encoding="UTF-8" standalone="no"?>
<svg
   xmlns:dc="http://purl.org/dc/elements/1.1/"
   xmlns:cc="http://creativecommons.org/ns#"
   xmlns:rdf="http://www.w3.org/1999/02/22-rdf-syntax-ns#"
   xmlns:svg="http://www.w3.org/2000/svg"
   xmlns="http://www.w3.org/2000/svg"
   xmlns:sodipodi="http://sodipodi.sourceforge.net/DTD/sodipodi-0.dtd"
   xmlns:inkscape="http://www.inkscape.org/namespaces/inkscape"
   inkscape:version="1.0 (4035a4f, 2020-05-01)"
   sodipodi:docname="sql.svg"
   xml:space="preserve"
   style="enable-background:new 0 0 585.918 585.918;"
   viewBox="0 0 585.918 585.918"
   height="585.918px"
   width="585.918px"
   y="0px"
   x="0px"
   id="Capa_1"
   version="1.1"><metadata
   id="metadata986"><rdf:RDF><cc:Work
       rdf:about=""><dc:format>image/svg+xml</dc:format><dc:type
         rdf:resource="http://purl.org/dc/dcmitype/StillImage" /></cc:Work></rdf:RDF></metadata><defs
   id="defs984" /><sodipodi:namedview
   inkscape:current-layer="Capa_1"
   inkscape:window-maximized="0"
   inkscape:window-y="0"
   inkscape:window-x="1440"
   inkscape:cy="292.95901"
   inkscape:cx="277.14713"
   inkscape:zoom="1.1383845"
   showgrid="false"
   id="namedview982"
   inkscape:window-height="1080"
   inkscape:window-width="1920"
   inkscape:pageshadow="2"
   inkscape:pageopacity="0"
   guidetolerance="10"
   gridtolerance="10"
   objecttolerance="10"
   borderopacity="1"
   bordercolor="#666666"
   pagecolor="#ffffff" />
<g
   style="fill:#ff385c;fill-opacity:1"
   id="g949">
	<path
   style="fill:#ff385c;fill-opacity:1"
   id="path903"
   d="M170.398,259.672c-17.877,0.748-27.977,19.158-27.977,41.387c-0.167,22.577,10.266,40.062,27.801,40.397   c18.184,0.354,29.005-17.29,29.005-41.568C199.228,277.245,188.761,258.909,170.398,259.672z" />
	<path
   style="fill:#ff385c;fill-opacity:1"
   id="path905"
   d="M11.176,46.206v492.311l346.22,47.401v-50.583c0.776,0.053,1.542,0.115,2.329,0.115h177.39   c20.756,0,37.627-16.888,37.627-37.628V86.602c0-20.743-16.871-37.628-37.627-37.628h-177.39c-0.787,0-1.553,0.076-2.329,0.123V0   L11.176,46.206z M63.135,359.296c-11.258-0.4-22.174-4.036-27.562-7.622l4.399-20.363c5.847,3.507,14.948,7.108,24.493,7.287   c10.437,0.189,16.032-4.583,16.032-11.979c0-7.065-4.85-11.097-16.911-15.906c-16.326-6.32-26.743-16.282-26.743-32.187   c0-18.663,13.732-33.732,37.155-35.087c11.518-0.667,20.145,1.56,26.381,4.286l-5.299,21.2c-4.176-2.056-11.546-4.974-21.522-4.564   c-9.838,0.405-14.541,5.555-14.541,11.336c0,7.103,5.596,10.113,18.604,15.336c18.228,7.134,27,17.634,27,33.916   C104.621,344.313,91.048,360.287,63.135,359.296z M221.381,384.709c-17.788-6.059-32.263-12.017-48.203-19.545   c-2.611-1.176-5.396-1.815-8.171-2.095c-25.764-2.672-48.953-22.824-48.953-60.856c0-34.924,20.874-62.402,55.035-64.381   c36.912-2.129,58.027,25.985,58.027,60.576c0,28.766-13.342,48.772-29.711,55.759v0.734c9.519,3.051,20.283,5.628,30.281,8.017   L221.381,384.709z M335.463,366.881l-87.121-2.96V235.472l30.48-1.708v106.278l56.641,0.955V366.881z M359.726,70.48h177.39   c8.893,0,16.125,7.236,16.125,16.127v411.215c0,8.893-7.232,16.127-16.125,16.127h-177.39c-0.797,0-1.563-0.111-2.329-0.232   V399.438h16.126v-11.77h-16.126v-29.345h9.164v-11.764h-9.164v-62.725h15.841v-11.767h-15.841V210.01h48.938v-11.767h-48.938   V70.722C358.157,70.604,358.929,70.48,359.726,70.48z" />
	<rect
   style="fill:#ff385c;fill-opacity:1"
   id="rect907"
   height="11.766"
   width="38.153"
   y="234.596"
   x="367.548" />
	<rect
   style="fill:#ff385c;fill-opacity:1"
   id="rect909"
   height="11.766"
   width="38.157"
   y="234.596"
   x="412.855" />
	<rect
   style="fill:#ff385c;fill-opacity:1"
   id="rect911"
   height="11.767"
   width="43.703"
   y="272.069"
   x="380.603" />
	<rect
   style="fill:#ff385c;fill-opacity:1"
   id="rect913"
   height="11.767"
   width="43.696"
   y="272.069"
   x="432.504" />
	<rect
   style="fill:#ff385c;fill-opacity:1"
   id="rect915"
   height="11.769"
   width="18.54"
   y="310.261"
   x="365.732" />
	<rect
   style="fill:#ff385c;fill-opacity:1"
   id="rect917"
   height="11.769"
   width="18.54"
   y="310.261"
   x="387.743" />
	<rect
   style="fill:#ff385c;fill-opacity:1"
   id="rect919"
   height="11.769"
   width="18.54"
   y="310.261"
   x="409.407" />
	<rect
   style="fill:#ff385c;fill-opacity:1"
   id="rect921"
   height="11.769"
   width="18.53"
   y="310.261"
   x="431.418" />
	<rect
   style="fill:#ff385c;fill-opacity:1"
   id="rect923"
   height="11.769"
   width="18.541"
   y="310.261"
   x="454.353" />
	<rect
   style="fill:#ff385c;fill-opacity:1"
   id="rect925"
   height="11.769"
   width="18.539"
   y="310.261"
   x="476.369" />
	<rect
   style="fill:#ff385c;fill-opacity:1"
   id="rect927"
   height="11.769"
   width="18.541"
   y="310.261"
   x="498.027" />
	<rect
   style="fill:#ff385c;fill-opacity:1"
   id="rect929"
   height="11.769"
   width="18.529"
   y="310.261"
   x="520.044" />
	<rect
   style="fill:#ff385c;fill-opacity:1"
   id="rect931"
   height="11.77"
   width="26.363"
   y="346.555"
   x="371.506" />
	<rect
   style="fill:#ff385c;fill-opacity:1"
   id="rect933"
   height="11.77"
   width="26.361"
   y="346.555"
   x="402.777" />
	<rect
   style="fill:#ff385c;fill-opacity:1"
   id="rect935"
   height="11.77"
   width="26.368"
   y="346.555"
   x="434.084" />
	<rect
   style="fill:#ff385c;fill-opacity:1"
   id="rect937"
   height="11.77"
   width="26.374"
   y="346.555"
   x="464.903" />
	<rect
   style="fill:#ff385c;fill-opacity:1"
   id="rect939"
   height="11.77"
   width="26.356"
   y="346.555"
   x="496.222" />
	<rect
   style="fill:#ff385c;fill-opacity:1"
   id="rect941"
   height="11.765"
   width="21.018"
   y="387.669"
   x="377.423" />
	<rect
   style="fill:#ff385c;fill-opacity:1"
   id="rect943"
   height="11.765"
   width="21.004"
   y="387.669"
   x="402.383" />
	<rect
   style="fill:#ff385c;fill-opacity:1"
   id="rect945"
   height="11.765"
   width="21.009"
   y="387.669"
   x="426.924" />
	<rect
   style="fill:#ff385c;fill-opacity:1"
   id="rect947"
   height="11.765"
   width="21.009"
   y="387.669"
   x="451.885" />
</g>
<g
   id="g951">
</g>
<g
   id="g953">
</g>
<g
   id="g955">
</g>
<g
   id="g957">
</g>
<g
   id="g959">
</g>
<g
   id="g961">
</g>
<g
   id="g963">
</g>
<g
   id="g965">
</g>
<g
   id="g967">
</g>
<g
   id="g969">
</g>
<g
   id="g971">
</g>
<g
   id="g973">
</g>
<g
   id="g975">
</g>
<g
   id="g977">
</g>
<g
   id="g979">
</g>
</svg>
